<svg xmlns="http://www.w3.org/2000/svg" viewBox="0 0 64 64">

  <!-- background -->
  <rect x="2" y="2" width="60" height="60" rx="12" fill="#eef5f0" stroke="#cfe0d3" stroke-width="2"></rect>

  <!-- LEFT PAGES (STACKED) -->
  <path d="M10 18 C18 14, 24 14, 30 18 L30 46 C24 42, 18 42, 10 44 Z" fill="#2f6f3e"></path>
  <path d="M8 20 C16 16, 22 16, 28 20 L28 46 C22 43, 16 43, 8 45 Z" fill="#3c8a4f"></path>

  <!-- RIGHT PAGES (STACKED) -->
  <path d="M34 18 C40 14, 48 14, 54 18 L54 44 C48 42, 40 42, 34 46 Z" fill="#2f6f3e"></path>
  <path d="M36 20 C42 16, 50 16, 56 20 L56 45 C50 43, 42 43, 36 46 Z" fill="#3c8a4f"></path>

  <!-- CENTER SPINE -->
  <line x1="32" y1="18" x2="32" y2="46" stroke="#1f4d2c" stroke-width="2.5"></line>

  <!-- PAGE LINES (LEFT) -->
  <path d="M16 28 C20 26, 24 26, 28 28" stroke="#eaf5ee" stroke-width="2" fill="none" stroke-linecap="round"></path>
  <path d="M16 34 C20 32, 24 32, 28 34" stroke="#eaf5ee" stroke-width="2" fill="none" stroke-linecap="round"></path>

  <!-- PAGE LINES (RIGHT) -->
  <path d="M36 28 C40 26, 44 26, 48 28" stroke="#eaf5ee" stroke-width="2" fill="none" stroke-linecap="round"></path>
  <path d="M36 34 C40 32, 44 32, 48 34" stroke="#eaf5ee" stroke-width="2" fill="none" stroke-linecap="round"></path>

  <!-- CURVED BASE -->
  <path d="M12 50 C24 52, 40 52, 52 50" stroke="#c8dbcd" stroke-width="2.5" fill="none" stroke-linecap="round"></path>

</svg>